<svg xmlns="http://www.w3.org/2000/svg" width="40" height="40" viewBox="0 0 40 40">
  <path id="ic_local_grocery_store_24px" d="M13,34a4,4,0,1,0,4,4A3.995,3.995,0,0,0,13,34ZM1,2V6H5l7.2,15.18-2.7,4.9A3.867,3.867,0,0,0,9,28a4.012,4.012,0,0,0,4,4H37V28H13.84a.5.5,0,0,1-.5-.5l.06-.24L15.2,24H30.1a3.981,3.981,0,0,0,3.5-2.06L40.76,8.96A1.954,1.954,0,0,0,41,8a2.006,2.006,0,0,0-2-2H9.42L7.54,2H1ZM33,34a4,4,0,1,0,4,4A3.995,3.995,0,0,0,33,34Z" transform="translate(-1 -2)" fill="#fff" opacity="0.79"/>
</svg>
