<svg xmlns="http://www.w3.org/2000/svg" width="120" height="105" viewBox="0 0 120 105">
  <path id="ic_local_phone_24px" d="M27.133,48.442C36.733,64.95,52.2,78.425,71.067,86.883L85.733,74.05a7.316,7.316,0,0,1,6.8-1.4,86.023,86.023,0,0,0,23.8,3.325C120,75.975,123,78.6,123,81.808v20.358c0,3.208-3,5.833-6.667,5.833C53.733,108,3,63.608,3,8.833,3,5.625,6,3,9.667,3H33c3.667,0,6.667,2.625,6.667,5.833a58.761,58.761,0,0,0,3.8,20.825,5.354,5.354,0,0,1-1.667,5.95Z" transform="translate(-3 -3)" fill="#fff"/>
</svg>
